<svg width="29" height="28" viewBox="0 0 29 28" fill="none" xmlns="http://www.w3.org/2000/svg">
  <path
    d="M14.3545 9.8073C11.8493 9.8073 9.80486 11.8517 9.80486 14.3569C9.80486 16.8621 11.8493 18.9065 14.3545 18.9065C16.8597 18.9065 18.9041 16.8621 18.9041 14.3569C18.9041 11.8517 16.8597 9.8073 14.3545 9.8073ZM27.9999 14.3569C27.9999 12.4729 28.017 10.606 27.9112 8.72535C27.8054 6.54099 27.3071 4.60237 25.7098 3.00505C24.109 1.40432 22.1738 0.909427 19.9895 0.803622C18.1054 0.697817 16.2385 0.714882 14.3579 0.714882C12.4739 0.714882 10.6069 0.697817 8.72633 0.803622C6.54197 0.909427 4.60334 1.40774 3.00603 3.00505C1.4053 4.60578 0.910404 6.54099 0.804599 8.72535C0.698794 10.6094 0.715859 12.4763 0.715859 14.3569C0.715859 16.2375 0.698794 18.1079 0.804599 19.9885C0.910404 22.1728 1.40871 24.1115 3.00603 25.7088C4.60676 27.3095 6.54197 27.8044 8.72633 27.9102C10.6103 28.016 12.4773 27.999 14.3579 27.999C16.2419 27.999 18.1089 28.016 19.9895 27.9102C22.1738 27.8044 24.1124 27.3061 25.7098 25.7088C27.3105 24.1081 27.8054 22.1728 27.9112 19.9885C28.0204 18.1079 27.9999 16.2409 27.9999 14.3569ZM14.3545 21.3571C10.4806 21.3571 7.35428 18.2308 7.35428 14.3569C7.35428 10.4831 10.4806 7.35671 14.3545 7.35671C18.2283 7.35671 21.3547 10.4831 21.3547 14.3569C21.3547 18.2308 18.2283 21.3571 14.3545 21.3571ZM21.6414 8.70488C20.7369 8.70488 20.0065 7.97448 20.0065 7.07002C20.0065 6.16555 20.7369 5.43516 21.6414 5.43516C22.5458 5.43516 23.2762 6.16555 23.2762 7.07002C23.2728 7.97789 22.5458 8.70488 21.6414 8.70488Z"
    fill="white" />
</svg>